<svg xmlns="http://www.w3.org/2000/svg" xmlns:xlink="http://www.w3.org/1999/xlink" id="Capa_1" x="0px" y="0px" viewBox="0 0 300 300" style="enable-background:new 0 0 300 300;" xml:space="preserve"><style type="text/css">	.st0{fill:url(#SVGID_00000096750247597969949520000014252728010326246822_);}			.st1{clip-path:url(#SVGID_00000099636340607503555050000000190297274460966804_);fill:url(#SVGID_00000052066879315568478080000015327587373827742089_);}	.st2{fill:#FFFFFF;}</style><g>	<g>		<g>							<linearGradient id="SVGID_00000102504539411667854040000015195166888127233925_" gradientUnits="userSpaceOnUse" x1="3.035" y1="151" x2="296.965" y2="151" gradientTransform="matrix(1 0 0 -1 0 301)">				<stop offset="0" style="stop-color:#9E70CE"></stop>				<stop offset="1" style="stop-color:#5390FF"></stop>			</linearGradient>			<path id="SVGID_1_" style="fill:url(#SVGID_00000102504539411667854040000015195166888127233925_);" d="M3,150    c0,81.2,65.8,147,147,147s147-65.8,147-147S231.2,3,150,3C68.8,3,3,68.8,3,150"></path>		</g>		<g>			<defs>				<path id="SVGID_00000017499818362933151340000005622867006499648386_" d="M3,150c0,81.2,65.8,147,147,147s147-65.8,147-147     S231.2,3,150,3C68.8,3,3,68.8,3,150"></path>			</defs>			<clipPath id="SVGID_00000174594768811637886800000010761206070386805670_">				<use xlink:href="#SVGID_00000017499818362933151340000005622867006499648386_" style="overflow:visible;"></use>			</clipPath>							<linearGradient id="SVGID_00000061433131813727640730000006556790580685596301_" gradientUnits="userSpaceOnUse" x1="-544.8521" y1="-301.8375" x2="-539.0956" y2="-301.8375" gradientTransform="matrix(0 51.0608 -51.0608 0 -15262.1094 27823.6152)">				<stop offset="0" style="stop-color:#9E70CE"></stop>				<stop offset="1" style="stop-color:#5390FF"></stop>			</linearGradient>							<rect x="3" y="3" style="clip-path:url(#SVGID_00000174594768811637886800000010761206070386805670_);fill:url(#SVGID_00000061433131813727640730000006556790580685596301_);" width="293.9" height="293.9"></rect>		</g>	</g>	<path class="st2" d="M231.6,209c-1.5,4.5-4.5,7.9-8.7,10.1c-2.4,1.2-5,1.9-7.7,1.9c-3.3,0-6.3-0.8-9-2.6c-2.8-1.7-5.1-4.1-6.5-7.2  L150,112l-40,79.8l1.8-3.6l-11.5,23c-2.1,4.4-5.5,7.3-10,8.7c-4.5,1.6-9,1.2-13.3-0.9c-4.3-2.1-7.2-5.5-8.7-10.1  c-1.6-4.6-1.2-9,0.9-13.3l65.2-130.4c1.5-2.9,3.6-5.3,6.4-7.1c2.8-1.7,5.8-2.5,9.1-2.5c3.3,0,6.4,0.8,9.2,2.5  c2.8,1.7,4.9,4.1,6.4,7.1l65.1,130.4C232.9,200,233.2,204.5,231.6,209"></path></g></svg>